Coordinates
version=1
nRows=22
nColumns=24
inDegrees=yes

Units are S.I. units (second, meters, Newtons, ...)
Angles are in degrees.

endheader
time	pelvis_tilt	pelvis_list	pelvis_rotation	pelvis_tx	pelvis_ty	pelvis_tz	hip_flexion_r	hip_adduction_r	hip_rotation_r	knee_angle_r	ankle_angle_r	subtalar_angle_r	mtp_angle_r	hip_flexion_l	hip_adduction_l	hip_rotation_l	knee_angle_l	ankle_angle_l	subtalar_angle_l	mtp_angle_l	lumbar_extension	lumbar_bending	lumbar_rotation
      3.65000000	     -1.79299118	     -1.36819602	     -6.80414434	     -0.84449678	      0.90883800	      0.22780821	    -14.71841821	      4.98222754	      7.76701532	    -17.53403495	     23.16873811	     -2.84429452	      0.00000000	     30.32852799	     -0.60302451	     -2.03009669	    -11.19280291	     11.39929921	     -9.65002469	      0.00000000	    -10.25304588	      0.52072763	     -1.46950612
      3.65500000	     -1.85841834	     -1.17941977	     -6.81378114	     -0.83614122	      0.90762132	      0.22743998	    -14.73588074	      4.64691755	      7.35856181	    -18.33461492	     23.00416239	     -2.08221285	      0.00000000	     30.55039967	     -0.35144936	     -2.22267118	    -12.12319852	     10.97680191	    -10.10027031	      0.00000000	    -10.07793597	      0.26371947	     -1.45336204
      3.66000000	     -1.93082793	     -0.94755679	     -6.82361228	     -0.82777789	      0.90648115	      0.22706808	    -14.68757557	      4.26515695	      6.91444646	    -19.22161289	     22.76853230	     -1.31450050	      0.00000000	     30.78006226	     -0.06248923	     -2.41384199	    -13.08788056	     10.41030707	    -10.57470391	      0.00000000	     -9.89313445	     -0.04243231	     -1.45773344
      3.66500000	     -2.01832229	     -0.66249819	     -6.82208740	     -0.81941031	      0.90541499	      0.22668968	    -14.55583985	      3.82803066	      6.41413341	    -20.20915415	     22.46665726	     -0.51717637	      0.00000000	     31.02957132	      0.27714500	     -2.60052179	    -14.07552624	      9.70999368	    -11.05768616	      0.00000000	     -9.68412206	     -0.41288983	     -1.48806440
      3.67000000	     -2.11653926	     -0.33053084	     -6.80916993	     -0.81106924	      0.90443736	      0.22630485	    -14.34040251	      3.34206410	      5.86678686	    -21.30291845	     22.08586984	      0.29436556	      0.00000000	     31.30286653	      0.66168256	     -2.76515210	    -15.09275342	      8.92218446	    -11.52835493	      0.00000000	     -9.46360871	     -0.83772675	     -1.54568515
      3.67500000	     -2.22432206	      0.04552564	     -6.79107007	     -0.80278289	      0.90354980	      0.22591278	    -14.03077935	      2.80675560	      5.26915379	    -22.51768303	     21.62334658	      1.09875819	      0.00000000	     31.60777603	      1.08763834	     -2.91489612	    -16.15153196	      8.09472862	    -11.99078335	      0.00000000	     -9.23805989	     -1.32046874	     -1.63313914
      3.68000000	     -2.34735965	      0.47701132	     -6.73713021	     -0.79448223	      0.90280242	      0.22551905	    -13.65726331	      2.22800265	      4.70275951	    -23.79403165	     21.00810221	      1.85478815	      0.00000000	     31.93945956	      1.57141064	     -3.09528862	    -17.22459980	      7.23098174	    -12.36207028	      0.00000000	     -8.98506916	     -1.87195576	     -1.74735840
      3.68500000	     -2.47920664	      0.93678486	     -6.70334458	     -0.78628985	      0.90210853	      0.22511858	    -13.16616600	      1.59823897	      4.06825772	    -25.22849975	     20.34488268	      2.64903739	      0.00000000	     32.30889126	      2.07848368	     -3.20129041	    -18.35886937	      6.42804509	    -12.74520324	      0.00000000	     -8.73723563	     -2.45438804	     -1.86797861
      3.69000000	     -2.61332946	      1.39935289	     -6.64194398	     -0.77814972	      0.90153993	      0.22467651	    -12.61000781	      0.96607945	      3.45114347	    -26.74737311	     19.52614029	      3.41409784	      0.00000000	     32.69304153	      2.60417046	     -3.27249550	    -19.51752838	      5.65755514	    -13.10441009	      0.00000000	     -8.49894792	     -3.03869445	     -1.97886015
      3.69500000	     -2.73340224	      1.92874828	     -6.58651684	     -0.76993144	      0.90105719	      0.22433560	    -12.01595573	      0.27679675	      2.92237809	    -28.33769026	     18.57338468	      4.01274666	      0.00000000	     33.06001688	      3.18111836	     -3.38611925	    -20.68923892	      5.05809169	    -13.35091191	      0.00000000	     -8.25225040	     -3.71974676	     -2.15402133
      3.70000000	     -2.84628028	      2.43499315	     -6.52823679	     -0.76178417	      0.90066546	      0.22396371	    -11.35362022	     -0.40197493	      2.39758200	    -30.02945531	     17.48821813	      4.60606809	      0.00000000	     33.41629930	      3.74695571	     -3.45606785	    -21.86306387	      4.55291199	    -13.60685279	      0.00000000	     -8.03192187	     -4.37089136	     -2.29006583
      3.70500000	     -2.93593191	      2.94403616	     -6.46852259	     -0.75363199	      0.90035867	      0.22360963	    -10.66009547	     -1.08368383	      1.92778009	    -31.78938672	     16.26581240	      5.09350696	      0.00000000	     33.72665314	      4.32164175	     -3.51564474	    -23.01037756	      4.20300480	    -13.82367952	      0.00000000	     -7.83778688	     -5.02948727	     -2.43322209
      3.71000000	     -3.00045732	      3.45107916	     -6.40700964	     -0.74544017	      0.90016577	      0.22326228	     -9.94830037	     -1.76657771	      1.50507177	    -33.59071229	     14.88919816	      5.48569975	      0.00000000	     33.96998176	      4.90106534	     -3.57910646	    -24.10053706	      4.01200713	    -13.98929574	      0.00000000	     -7.66477103	     -5.68755826	     -2.57952980
      3.71500000	     -3.07544558	      3.92546641	     -6.37523937	     -0.73740020	      0.89993895	      0.22282928	     -9.13295598	     -2.43644057	      1.12942825	    -35.50736690	     13.48200322	      5.84331184	      0.00000000	     34.20454322	      5.45886835	     -3.58930813	    -25.15543715	      3.95311222	    -14.22661599	      0.00000000	     -7.50886852	     -6.28599803	     -2.66242242
      3.72000000	     -3.05897144	      4.40761992	     -6.30422728	     -0.72921497	      0.89992209	      0.22249655	     -8.42287992	     -3.08037742	      0.82642932	    -37.37494805	     11.89014495	      5.92083910	      0.00000000	     34.26899078	      6.03885817	     -3.64934823	    -26.10708752	      4.15179644	    -14.28286533	      0.00000000	     -7.43833475	     -6.92011546	     -2.83973248
      3.72500000	     -3.10891214	      4.87373732	     -6.26908963	     -0.72121081	      0.89979254	      0.22204247	     -7.53866095	     -3.74065927	      0.53698524	    -39.36224280	     10.35579089	      6.04849760	      0.00000000	     34.37823406	      6.59855303	     -3.70966817	    -26.99965165	      4.44015148	    -14.39735656	      0.00000000	     -7.31446407	     -7.50100664	     -2.92241938
      3.73000000	     -3.08912982	      5.32357960	     -6.19305533	     -0.71318087	      0.89984975	      0.22163339	     -6.73005345	     -4.34654150	      0.31369681	    -41.29701343	      8.71200712	      5.88965098	      0.00000000	     34.34348282	      7.16547586	     -3.76371484	    -27.78792624	      4.89599152	    -14.38464332	      0.00000000	     -7.27656126	     -8.07837199	     -3.07550605
      3.73500000	     -3.09966953	      5.75722042	     -6.12748458	     -0.70518418	      0.89990155	      0.22117276	     -5.84290081	     -4.94044123	      0.11453751	    -43.24725492	      7.09348380	      5.61298869	      0.00000000	     34.28518652	      7.71223314	     -3.84876186	    -28.48407880	      5.48606076	    -14.34399284	      0.00000000	     -7.19816031	     -8.61344831	     -3.20816854
      3.74000000	     -3.08939886	      6.16559408	     -6.03523493	     -0.69726998	      0.90005924	      0.22068291	     -4.95484711	     -5.48483925	     -0.04789932	    -45.17166178	      5.49688595	      5.11953432	      0.00000000	     34.14741935	      8.25228440	     -3.91369345	    -29.08488408	      6.15498324	    -14.25182689	      0.00000000	     -7.16451432	     -9.11464395	     -3.37004538
      3.74500000	     -3.02409174	      6.57105207	     -5.91313252	     -0.68935608	      0.90037129	      0.22014387	     -4.11772131	     -6.01985279	     -0.22847283	    -47.04664525	      3.97489431	      4.41138886	      0.00000000	     33.87600450	      8.82423153	     -3.93145164	    -29.55725657	      6.87007040	    -14.19068219	      0.00000000	     -7.19791322	     -9.60784386	     -3.58302664
      3.75000000	     -3.00468829	      6.95981291	     -5.78645755	     -0.68155291	      0.90069398	      0.21959013	     -3.19320545	     -6.52059408	     -0.37665842	    -48.91134263	      2.59195143	      3.52742780	      0.00000000	     33.61385096	      9.36432580	     -3.98976887	    -29.95840620	      7.62235911	    -14.05455059	      0.00000000	     -7.19032406	    -10.06911497	     -3.80426560
      3.75500000	     -2.99363819	      7.32978034	     -5.64061832	     -0.67383356	      0.90109191	      0.21898856	     -2.23794619	     -6.99243422	     -0.52944598	    -50.73798125	      1.37592383	      2.45576983	      0.00000000	     33.31059554	      9.89605503	     -4.02787488	    -30.27288106	      8.37847633	    -13.90115485	      0.00000000	     -7.18587123	    -10.49867201	     -4.02239270
